<svg xmlns="http://www.w3.org/2000/svg" width="6" height="10" viewBox="0 0 6 10" fill="none">
  <path d="M5.71 5.71L1.71 9.71C1.5217 9.8983 1.2663 10.0041 1 10.0041C0.733698 10.0041 0.478304 9.8983 0.29 9.71C0.101696 9.5217 -0.00409126 9.2663 -0.00409126 9C-0.00409126 8.7337 0.101696 8.47831 0.29 8.29L3.59 5L0.29 1.71C0.101696 1.5217 -0.00409126 1.2663 -0.00409126 1C-0.00409126 0.868143 0.0218797 0.737575 0.07234 0.615753C0.1228 0.493931 0.196761 0.383241 0.29 0.290002C0.383238 0.196764 0.493928 0.122803 0.61575 0.0723429C0.737572 0.0218825 0.868141 -0.00408936 1 -0.00408936C1.2663 -0.00408936 1.5217 0.101699 1.71 0.290002L5.71 4.29C5.80373 4.38297 5.87812 4.49357 5.92889 4.61543C5.97966 4.73728 6.0058 4.86799 6.0058 5C6.0058 5.13201 5.97966 5.26272 5.92889 5.38458C5.87812 5.50644 5.80373 5.61704 5.71 5.71Z" fill="beige"/>
</svg>